<?xml version="1.0" encoding="utf-8"?>
<!-- Generator: Adobe Illustrator 16.0.0, SVG Export Plug-In . SVG Version: 6.00 Build 0)  -->
<!DOCTYPE svg PUBLIC "-//W3C//DTD SVG 1.1//EN" "http://www.w3.org/Graphics/SVG/1.1/DTD/svg11.dtd">
<svg version="1.1" id="图形" xmlns="http://www.w3.org/2000/svg" xmlns:xlink="http://www.w3.org/1999/xlink" x="0px" y="0px"
	 width="1000.637px" height="1000.678px" viewBox="0 0 1000.637 1000.678" enable-background="new 0 0 1000.637 1000.678"
	 xml:space="preserve">
<g>
	<polygon points="313.153,0 0.321,0 0.321,18.548 300.118,18.548 	"/>
	<polygon points="305.58,111.23 305.58,79.538 4.847,79.538 4.847,111.23 62.374,111.23 62.374,99.522 247.363,99.522 
		247.363,111.23 	"/>
	<polygon points="65.515,31.358 8.847,31.358 30.737,65.675 90.163,65.675 	"/>
	<polygon points="175.752,31.358 116.676,31.358 140.225,65.675 199.482,65.675 	"/>
	<polygon points="246.294,31.358 223.59,65.675 279.051,65.675 301.405,31.358 	"/>
	<path d="M359.295,267.073c0.001,0-2.421,3.91-5.31,5.099c-2.894,1.189-8.516,1.228-8.516,1.228h-60.657c0,0-4,0.439-8.666-1.228
		c-5.494-1.962-7.447-3.566-7.447-3.566l-26.488-15.776l63.364-49.605v-26.197l-194.849,0.213l10.473-24.435h184.38v-20.779H128.15
		l9.002-20.854H79.625l-9.175,20.854H4.847v20.779h55.998L14.311,261.874c0,0-2.623,7.943-5.992,9.632
		c-3.369,1.689-7.998,1.894-7.998,1.894v19.239h44.248c0,0,10.258,0,13.25-2.3c2.992-2.3,7.702-11.409,7.702-11.409l35.825-79.298
		h125.719l-28.602,26.991l-17.213-8.846H98.911l56.151,33.416l-28.583,17.08c0,0-5.206,3.211-8.786,4.316s-8.542,0.811-8.542,0.811
		h-24.34v19.239h77.341c0,0,9-0.134,13.333-1.134s10.644-5.576,10.644-5.576l14.064-8.691l16.417,9.944c0,0,5.384,3.957,9.334,4.906
		c3.95,0.949,9.208,0.55,9.208,0.55h158.167c0,0,7.135,0,11.75-1.8c4.61-1.8,8.08-7.943,8.08-7.943l52.022-72.981H400.75
		L359.295,267.073z"/>
	<path d="M998.824,167.534h-126.9v-23.721h67.609c0,0,30.033-0.559,41.095-7.73c12.199-7.91,13.413-18.137,13.413-18.137V0H695.207
		v143.813h122.115v23.722l-123.59-0.001H529.248v-23.721h67.609c0,0,30.027-0.559,41.095-7.73
		c12.199-7.91,13.413-16.137,13.413-16.137V0H352.531v143.813h122.116v23.722H345.474v20.482H474.65V292.64h54.601V188.017h288.073
		V292.64h54.602V188.017h126.9L998.824,167.534L998.824,167.534z M871.924,60.267V19.149h67.52l0.096,103.521H871.93l-0.002-40.902
		h47.707l0.152-21.501H871.924L871.924,60.267z M529.248,60.267V19.149h67.516V122.67H529.25l-0.002-40.902h47.707V60.267H529.248z
		 M474.648,122.67H407.13V81.768h67.521L474.648,122.67L474.648,122.67z M474.648,60.266H407.13V19.149h67.521L474.648,60.266
		L474.648,60.266z M817.324,122.67h-67.521V81.768h67.521V122.67z M817.324,60.266h-67.521V19.149h67.521V60.266z"/>
	<path d="M704.2,263.12c0,0-5.063,6.946-8.216,8.719c-3.154,1.772-14.166,1.561-14.166,1.561h-16c0,0-11.104,0-15-2.228
		c-3.898-2.228-10.122-10.748-10.122-10.748l-37.563-51.189h-64.59l49.551,69.759c0,0,6.857,9.811,11.059,11.844
		c4.192,2.033,16.167,1.8,16.167,1.8h115.499c0,0,11.665,0.167,15.501-1.134c3.836-1.301,10.489-11.671,10.489-11.671l50.939-69.92
		h-64.42L704.2,263.12z"/>
	<path d="M993.395,271.173c-3.896-2.228-10.117-10.748-10.117-10.748l-37.563-51.189h-64.59l49.551,69.759
		c0,0,6.857,9.811,11.059,11.844c4.192,2.033,16.167,1.8,16.167,1.8h42.737v-19.688
		C997.854,272.634,995.008,272.095,993.395,271.173z"/>
</g>
</svg>
