<?xml version="1.0" encoding="utf-8"?>
<!-- Generator: Adobe Illustrator 16.0.0, SVG Export Plug-In . SVG Version: 6.00 Build 0)  -->
<!DOCTYPE svg PUBLIC "-//W3C//DTD SVG 1.1//EN" "http://www.w3.org/Graphics/SVG/1.1/DTD/svg11.dtd">
<svg version="1.1" id="图层_1" xmlns="http://www.w3.org/2000/svg" xmlns:xlink="http://www.w3.org/1999/xlink" x="0px" y="0px"
	 width="260px" height="90px" viewBox="0 0 260 90" enable-background="new 0 0 260 90" xml:space="preserve">
<g>
	<g>
		<path fill="#666666" d="M96.367,21.141l0.05,0.343l0.347-0.007c15.026-0.336,30.365-0.851,45.59-1.531l0.448-0.02l-0.806-4.356
			l-0.348,0.024c-12.228,0.847-27.557,1.446-45.563,1.784l-0.489,0.011l0.117,0.474C96.001,19.038,96.221,20.141,96.367,21.141z"/>
		<path fill="#666666" d="M182.523,53.053h19.818v-4.1h-22.791v-6.304h17.417V17.378h-38.627v25.271h17.417v6.304h-23.009v4.1
			h19.402c-4.98,6.081-11.572,11.063-19.604,14.814l-0.383,0.176l0.207,0.369c0.564,1.01,1.062,2.106,1.478,3.257l0.149,0.416
			l0.395-0.199c9.287-4.656,16.47-10.46,21.365-17.267v18.84h3.793V54.732c5.181,6.892,12,12.488,20.29,16.645l0.317,0.159l0.19-0.3
			c0.864-1.372,1.629-2.443,2.331-3.273l0.344-0.402l-0.485-0.209C194.665,63.944,187.936,59.136,182.523,53.053z M162.134,27.835
			v-6.613h13.624v6.613H162.134z M162.134,38.55v-6.614h13.624v6.614H162.134z M179.551,27.835v-6.613h13.624v6.613H179.551z
			 M179.551,38.55v-6.614h13.624v6.614H179.551z"/>
		<path fill="#666666" d="M259.7,67.352c-7.872-3.407-14.601-8.216-20.015-14.299h19.822v-4.1h-22.792v-6.304h17.417V17.378h-38.628
			v25.271h17.417v6.304h-23.009v4.1h19.402c-4.979,6.081-11.571,11.063-19.607,14.814l-0.379,0.176l0.205,0.369
			c0.566,1.01,1.063,2.106,1.479,3.257l0.151,0.416l0.392-0.199c9.288-4.656,16.468-10.46,21.366-17.267v18.84h3.794V54.732
			c5.176,6.892,11.997,12.488,20.291,16.645l0.316,0.159l0.189-0.3c0.85-1.351,1.636-2.45,2.332-3.273l0.341-0.402L259.7,67.352z
			 M219.298,27.835v-6.613h13.624v6.613H219.298z M219.298,38.55v-6.614h13.624v6.614H219.298z M236.716,27.835v-6.613h13.62v6.613
			H236.716z M236.716,38.55v-6.614h13.62v6.614H236.716z"/>
		<polygon fill="#666666" points="129.69,30.387 94.821,30.387 94.821,39.588 98.687,39.588 98.687,34.231 139.081,34.231 
			139.081,39.588 142.948,39.588 142.948,30.387 133.804,30.387 		"/>
		<path fill="#666666" d="M145.004,68.906c-7.162-0.491-13.428-1.764-18.635-3.781c4.331-2.696,7.776-6.024,10.51-10.153
			l0.066-0.098v-3.825h-26.774c1.021-1.66,1.989-3.365,2.879-5.084h29.898v-3.843h-28.043c0.832-1.848,1.659-3.924,2.345-5.839
			c-1.086-0.238-3.41-0.795-4.065-1.16c-0.795,2.38-1.739,4.729-2.811,6.999H94.821v3.843h13.576
			c-0.961,1.723-2.009,3.418-3.146,5.084l-0.024,0.037c-3.338,4.888-7.423,9.526-12.202,13.841l-0.285,0.256l0.25,0.289
			c0.857,0.992,1.583,2.004,2.159,3.001l0.249,0.428l0.36-0.338c4.391-4.129,8.284-8.574,11.575-13.22
			c2.511,3.826,5.793,7.108,9.771,9.773c-4.81,1.891-10.712,3.365-18.014,4.504l-0.777,0.121l0.568,0.548
			c0.756,0.729,1.9,1.832,2.481,3.007l0.129,0.265l0.292-0.054c8.103-1.502,14.576-3.401,19.776-5.803
			c5.751,2.885,12.797,4.839,20.95,5.808l0.275,0.031l0.121-0.247c0.572-1.161,1.373-2.429,2.383-3.763l0.437-0.577L145.004,68.906z
			 M112.091,54.894h19.574c-2.639,3.293-5.896,5.947-9.929,8.099C117.821,60.86,114.581,58.14,112.091,54.894z"/>
		<path fill="#666666" d="M106.08,22.319c-0.994,0-1.82,0.332-2.481,0.993c-0.663,0.662-0.993,1.505-0.993,2.531
			c0,0.993,0.33,1.811,0.993,2.457c0.661,0.645,1.487,0.967,2.481,0.967c0.991,0,1.818-0.322,2.481-0.967
			c0.662-0.646,0.993-1.464,0.993-2.457c0-1.026-0.332-1.869-0.993-2.531C107.898,22.65,107.071,22.319,106.08,22.319z"/>
		<path fill="#666666" d="M119.575,22.319c-0.993,0-1.82,0.332-2.482,0.993c-0.663,0.662-0.991,1.505-0.991,2.531
			c0,0.993,0.328,1.811,0.991,2.457c0.663,0.645,1.49,0.967,2.482,0.967s1.818-0.322,2.481-0.967
			c0.66-0.646,0.993-1.464,0.993-2.457c0-1.026-0.333-1.869-0.993-2.531C121.393,22.65,120.567,22.319,119.575,22.319z"/>
		<path fill="#666666" d="M133.069,22.319c-0.994,0-1.82,0.332-2.483,0.993c-0.661,0.662-0.991,1.505-0.991,2.531
			c0,0.993,0.33,1.811,0.991,2.457c0.663,0.645,1.489,0.967,2.483,0.967c0.991,0,1.818-0.322,2.48-0.967
			c0.66-0.646,0.993-1.464,0.993-2.457c0-1.026-0.333-1.869-0.993-2.531C134.888,22.65,134.061,22.319,133.069,22.319z"/>
	</g>
	<g>
		<path fill="#ED5A7F" d="M62.677,39.591c0.169,0.883,0.416,2.091,0.485,3.007c0.081,0.597,0.104,1.181,0.104,1.802
			c0,13.259-10.75,24.007-24.008,24.007C26,68.407,15.25,57.659,15.25,44.4S26,20.391,39.259,20.391
			c6.485,0,12.369,2.573,16.688,6.753c1.535,1.291,3.46,2.22,5.42,2.172c3.924-0.094,6.345-2.479,6.889-6.405
			c0.473-3.415-1.987-5.803-1.987-5.803C59.332,10.242,49.79,6,39.259,6c-21.209,0-38.4,17.193-38.4,38.4
			c0,21.208,17.191,38.399,38.4,38.399c11.437,0,21.706-5.002,28.741-12.935c0.003-0.005,9.347-9.543,1.68-22.215
			C68.122,45.075,66.017,41.751,62.677,39.591z"/>
		<path fill="#ED5A7F" d="M60.919,40.355c-0.041-0.535-0.142-1.164-0.251-1.776c-4.989-2.37-10.552-3.719-16.439-3.719
			c-4,0-7.853,0.613-11.479,1.746c0,0-5.015,1.741-5.015,6.899c0,3.964,3.576,6.877,7.084,6.974c0.894,0,1.722-0.057,2.623-0.268
			c0,0,4.431-0.961,6.787-0.961c5.166,0,9.945,1.637,13.862,4.413c1.87-3.417,2.933-7.338,2.933-11.506
			C61.023,41.538,61,40.952,60.919,40.355z"/>
	</g>
</g>
</svg>
